{"glyphs":{":":{"x_min":0,"x_max":220,"ha":220,"o":"m 61 356 l 61 360 q 68 380 80 393 q 93 405 115 414 l 119 414 q 141 406 154 393 q 166 381 173 360 l 173 356 q 165 332 153 320 q 141 307 119 302 l 115 302 q 92 307 80 319 q 67 331 61 356 z m 61 93 l 61 97 q 68 117 80 129 q 93 142 115 151 l 119 151 q 141 143 154 130 q 166 118 173 97 l 173 93 q 165 69 153 57 q 141 44 119 39 l 115 39 q 92 44 80 56 q 67 68 61 93 z"},"$":{"x_min":0,"x_max":465,"ha":465,"o":"m 214 365 l 226 572 l 224 572 q 179 572 152 544 q 125 517 125 474 q 125 406 214 365 z m 245 264 l 232 32 q 279 35 311 63 q 343 91 343 140 q 343 168 335 189 q 328 209 313 224 q 298 238 283 246 q 268 255 245 264 z m 230 -9 l 226 -93 q 217 -98 188 -98 l 193 -10 q 148 -8 111 3 q 73 14 58 23 l 43 33 l 41 36 q 57 102 60 127 l 69 128 q 87 90 120 64 q 154 39 196 33 l 209 278 q 177 292 153 306 q 128 320 105 341 q 82 361 70 389 q 57 417 57 450 q 57 496 83 533 q 110 570 148 589 q 187 608 228 610 l 232 689 q 245 694 269 694 l 264 609 q 289 607 311 602 q 332 597 345 592 q 358 586 367 581 q 376 575 380 571 l 384 568 l 386 565 q 372 520 368 477 l 358 476 q 324 551 262 567 l 250 351 q 277 341 298 332 q 319 322 344 307 q 368 291 384 273 q 400 256 411 230 q 422 204 422 173 q 422 136 406 101 q 391 65 362 41 q 311 -2 230 -9 z"},"?":{"x_min":0,"x_max":405,"ha":405,"o":"m 195 619 q 126 619 72 525 l 59 526 l 43 593 l 46 597 q 73 620 115 639 q 157 659 204 659 q 280 659 325 618 q 369 577 369 508 q 369 485 362 464 q 355 443 346 428 q 337 414 320 398 q 303 381 293 373 q 282 365 263 351 q 220 319 211 301 q 193 267 193 228 l 193 184 q 193 174 180 174 q 167 174 167 184 l 167 230 q 167 251 169 266 q 170 281 176 303 q 182 326 196 348 q 210 370 234 391 q 266 421 280 446 q 294 470 294 504 q 294 553 266 586 q 237 619 195 619 z m 124 44 l 124 48 q 131 68 143 81 q 156 93 178 102 l 182 102 q 204 94 217 81 q 229 69 236 48 l 236 44 q 228 20 216 8 q 204 -4 182 -10 l 178 -10 q 155 -4 143 7 q 130 19 124 44 z"},"<":{"x_min":0,"x_max":487,"ha":487,"o":"m 122 239 l 439 123 l 439 73 l 49 215 l 49 263 l 439 404 l 439 354 z"},"'":{"x_min":0,"x_max":190,"ha":190,"o":"m 79 426 q 53 585 53 594 q 53 612 68 628 q 83 644 104 644 q 122 644 131 634 q 139 625 139 611 q 139 604 131 559 l 114 472 l 106 430 z"},"=":{"x_min":0,"x_max":527,"ha":527,"o":"m 461 318 l 461 269 l 66 269 l 66 318 z m 461 193 l 461 144 l 66 144 l 66 193 z"},"a":{"x_min":0,"x_max":481,"ha":481,"o":"m 310 225 l 225 202 q 169 187 148 163 q 126 138 126 102 q 126 78 147 59 q 168 41 200 41 q 240 41 292 80 q 306 91 306 106 z m 310 48 l 306 48 q 266 14 238 2 q 211 -10 170 -10 q 112 -10 78 17 q 45 44 45 98 q 45 149 89 188 q 133 226 211 243 l 304 264 q 311 267 311 276 q 311 308 304 331 q 297 354 288 366 q 279 378 264 385 q 250 392 239 393 q 229 394 215 394 q 182 394 156 371 q 129 348 105 309 l 92 310 l 75 377 l 78 381 q 96 396 111 406 q 126 417 158 428 q 190 439 225 439 q 250 439 272 435 q 293 432 316 421 q 338 410 354 392 q 370 375 380 345 q 390 316 390 277 q 390 273 389 208 q 387 143 387 126 q 387 63 404 48 q 413 41 433 41 q 445 41 460 46 l 468 21 q 439 -10 388 -10 q 360 -10 339 5 q 318 20 310 48 z"},"L":{"x_min":0,"x_max":515,"ha":515,"o":"m 191 445 l 191 200 q 191 90 199 61 q 259 61 329 67 q 399 72 440 78 l 481 83 l 483 79 q 481 63 481 44 q 481 28 483 0 l 481 -3 q 457 0 421 0 l 148 0 q 133 0 120 -1 q 107 -1 102 -2 l 96 -3 l 95 0 q 105 68 105 200 l 105 445 q 105 574 95 645 l 97 648 q 115 645 148 645 q 182 645 200 648 l 201 645 q 191 575 191 445 z"},"3":{"x_min":0,"x_max":465,"ha":465,"o":"m 209 29 q 222 29 237 32 q 251 35 271 44 q 290 54 304 69 q 319 84 330 111 q 340 138 340 172 q 340 235 301 268 q 262 300 203 300 q 173 300 161 298 l 161 342 q 183 339 198 339 q 251 339 281 367 q 319 404 319 465 q 319 511 293 541 q 267 571 236 571 q 192 571 166 550 q 139 530 120 486 l 105 487 l 84 551 l 87 554 q 111 576 152 593 q 193 610 245 610 q 318 610 362 573 q 406 535 406 480 q 406 422 369 380 q 332 337 288 327 l 288 322 q 347 316 386 277 q 426 238 426 180 q 426 142 411 110 q 396 78 373 56 q 350 35 321 19 q 292 4 262 -3 q 233 -10 207 -10 q 114 -10 58 38 l 55 41 l 77 116 l 92 117 q 113 72 123 59 q 145 32 192 29 q 200 29 209 29 z"},";":{"x_min":0,"x_max":220,"ha":220,"o":"m 51 356 l 51 360 q 58 380 70 393 q 83 405 105 414 l 109 414 q 131 406 144 393 q 156 381 163 360 l 163 356 q 155 332 143 320 q 130 307 109 302 l 105 302 q 82 307 69 319 q 57 331 51 356 z m 48 44 l 48 48 q 55 68 67 81 q 80 93 102 102 l 106 102 q 136 91 153 67 q 170 42 170 -3 q 170 -20 167 -35 q 163 -50 159 -61 q 155 -72 146 -83 q 136 -95 130 -101 q 124 -107 110 -117 q 96 -126 89 -130 q 83 -134 66 -144 q 53 -133 53 -123 q 93 -96 112 -74 q 131 -52 131 -29 q 131 -20 128 -14 q 126 -9 121 -7 q 116 -4 112 -4 q 108 -3 102 -3 q 77 2 65 11 q 54 20 48 44 z"},"J":{"x_min":0,"x_max":320,"ha":320,"o":"m 140 95 l 140 445 q 140 570 130 645 l 132 648 q 150 645 183 645 q 217 645 235 648 l 236 645 q 226 579 226 445 l 226 117 q 226 58 221 25 q 216 -8 204 -34 q 191 -60 163 -96 q 104 -172 5 -172 q -26 -172 -40 -163 l -41 -160 q -29 -140 -13 -78 l -2 -77 q 18 -112 56 -112 q 73 -112 86 -105 q 99 -98 107 -86 q 116 -75 123 -58 q 129 -40 132 -23 q 135 -7 137 16 q 139 39 140 56 q 140 73 140 95 z"},"V":{"x_min":0,"x_max":631,"ha":631,"o":"m 324 132 l 349 188 l 375 251 l 400 310 l 428 375 l 452 434 q 468 473 477 496 l 496 549 q 507 580 515 603 q 522 627 528 648 q 545 645 573 645 q 595 645 613 648 l 318 -10 l 290 -10 l 194 225 l 84 492 q 38 603 16 648 q 41 645 76 645 q 106 645 131 648 q 191 435 322 132 z"},"\"":{"x_min":0,"x_max":336,"ha":336,"o":"m 215 427 q 189 586 189 595 q 189 613 204 629 q 219 645 240 645 q 258 645 267 635 q 275 625 275 612 q 275 604 267 559 q 259 514 250 473 l 242 431 z m 89 426 q 63 585 63 594 q 63 612 78 628 q 93 644 114 644 q 132 644 140 634 q 149 625 149 611 q 149 604 141 558 q 133 513 125 472 l 116 430 z"},"7":{"x_min":0,"x_max":465,"ha":465,"o":"m 345 525 q 302 527 207 525 q 112 523 63 516 q 68 554 68 565 q 68 569 63 607 q 113 600 343 600 q 377 600 407 610 l 424 600 l 326 351 q 280 228 262 172 l 200 -9 l 127 -13 l 124 -7 q 187 134 345 525 z"},"S":{"x_min":0,"x_max":506,"ha":506,"o":"m 242 34 q 290 34 324 66 q 359 97 359 151 q 359 182 350 205 q 342 229 324 245 q 307 262 288 273 q 270 284 242 296 q 212 309 192 319 q 170 330 146 347 q 122 365 106 383 q 91 402 80 428 q 70 455 70 485 q 70 537 102 579 q 133 621 180 641 q 221 658 266 658 q 299 658 327 654 q 356 649 373 642 q 390 636 403 629 q 415 622 420 617 l 425 613 l 427 610 q 408 545 404 510 l 394 509 q 374 556 336 585 q 299 614 258 614 q 220 614 197 602 q 177 591 164 565 q 151 540 151 512 q 151 488 159 468 q 167 448 179 436 q 190 423 208 411 q 227 399 240 394 q 253 388 273 381 q 300 371 323 360 q 346 349 371 331 q 396 313 413 293 q 430 272 441 244 q 452 215 452 181 q 452 96 390 43 q 328 -10 234 -10 q 201 -10 170 -5 q 140 0 119 6 q 98 13 82 19 q 66 26 59 30 l 52 35 l 50 38 q 51 43 56 61 l 63 88 q 66 98 69 113 q 72 128 73 141 l 83 142 q 106 98 153 66 q 200 34 242 34 z"},"}":{"x_min":0,"x_max":277,"ha":277,"o":"m 95 -58 l 87 108 q 84 170 110 200 q 136 229 192 245 l 192 249 q 137 272 110 306 q 84 340 87 399 l 95 548 q 98 608 74 645 q 50 682 15 682 q 11 687 11 694 q 11 702 15 706 q 55 706 83 699 q 110 691 130 673 q 151 655 160 623 q 168 591 167 543 l 161 373 q 158 271 259 259 q 271 247 259 235 q 208 230 184 198 q 161 167 161 124 l 167 -60 q 168 -102 158 -131 q 147 -162 126 -179 q 105 -196 78 -205 q 50 -213 15 -213 q 11 -208 11 -201 q 11 -193 15 -189 q 30 -185 39 -181 q 48 -177 61 -168 q 74 -158 81 -146 q 87 -133 92 -110 q 97 -88 95 -58 z"},"Z":{"x_min":0,"x_max":622,"ha":622,"o":"m 187 54 q 245 54 340 59 q 435 64 501 70 l 567 75 l 569 72 q 567 56 567 39 q 567 28 569 0 l 567 -3 q 543 0 496 0 l 133 0 l 46 -3 l 43 1 q 49 9 58 22 q 67 36 69 38 l 438 579 q 441 585 440 588 q 439 591 435 591 q 380 591 325 587 q 270 584 200 578 q 130 573 80 570 l 78 573 q 80 589 80 606 q 80 617 78 645 l 80 648 q 104 645 141 645 l 445 645 q 469 645 514 647 q 559 649 571 651 q 577 651 577 645 q 577 633 547 591 l 192 72 q 187 65 187 54 z"},"x":{"x_min":0,"x_max":455,"ha":455,"o":"m 185 207 l 24 432 q 43 429 82 429 q 116 429 136 432 l 166 381 l 203 319 q 219 293 237 269 q 262 301 301 360 l 349 432 q 362 429 386 429 q 416 429 431 432 l 267 230 l 315 158 l 377 69 q 403 32 430 -3 q 399 0 373 0 q 339 0 322 -3 l 276 71 q 239 132 216 165 q 193 134 158 76 q 123 19 108 -3 q 93 0 64 0 q 42 0 28 -3 z"},")":{"x_min":0,"x_max":300,"ha":300,"o":"m 256 252 q 256 118 197 -2 q 138 -123 44 -203 l 21 -185 l 40 -163 q 48 -153 65 -129 q 82 -104 94 -81 q 107 -57 123 -19 q 138 18 148 57 q 159 95 166 146 q 173 198 173 252 q 173 517 21 691 l 44 708 q 86 671 121 628 q 155 585 177 547 q 199 509 215 467 q 230 425 238 394 q 246 363 250 330 q 254 297 255 282 q 256 267 256 252 z"},"&":{"x_min":0,"x_max":710,"ha":710,"o":"m 255 338 q 205 311 177 281 q 150 250 141 222 q 133 194 133 156 q 133 120 142 95 q 152 69 169 56 q 186 42 207 36 q 227 30 252 30 q 267 30 280 32 q 293 35 303 38 q 312 41 324 50 q 335 58 342 64 q 348 69 360 83 q 371 98 377 105 l 397 133 q 357 186 311 253 q 264 320 255 338 z m 293 411 q 340 442 368 479 q 396 516 396 544 q 396 578 379 599 q 361 619 331 619 q 307 619 281 594 q 255 568 255 524 q 255 504 264 473 q 274 443 293 411 z m 437 192 q 488 267 511 323 q 535 380 541 432 q 551 429 580 429 q 613 429 623 432 l 543 289 q 478 172 465 153 l 499 107 q 521 76 542 60 q 563 44 576 44 q 602 44 619 57 q 637 69 652 98 l 668 90 q 652 40 625 15 q 598 -10 570 -10 q 555 -10 545 -8 q 535 -7 519 -1 q 504 5 488 20 q 472 34 455 57 l 426 94 q 388 42 347 16 q 305 -10 245 -10 q 204 -10 168 0 q 133 10 105 30 q 76 50 60 85 q 44 120 44 166 q 44 220 89 270 q 134 319 233 375 q 179 458 179 522 q 179 544 190 568 q 201 592 220 612 q 239 632 270 645 q 300 658 336 658 q 388 658 426 625 q 463 591 463 544 q 463 503 421 456 q 379 408 315 371 l 319 363 q 351 308 437 192 z"},"_":{"x_min":0,"x_max":486,"ha":486,"o":"m 482 -110 l 482 -154 l 5 -154 l 5 -110 z"},"v":{"x_min":0,"x_max":457,"ha":457,"o":"m 197 -3 q 81 298 20 432 q 36 429 73 429 q 110 429 123 432 l 144 366 l 167 292 q 174 270 188 229 q 202 189 214 156 q 227 123 242 90 l 244 90 q 264 134 284 191 l 328 321 q 352 394 365 432 q 374 429 399 429 q 428 429 437 432 q 311 146 258 -3 q 249 0 228 0 q 207 0 197 -3 z"},"O":{"x_min":0,"x_max":741,"ha":741,"o":"m 355 614 q 325 614 297 604 q 269 595 243 573 q 217 551 198 519 q 178 487 167 438 q 155 388 155 327 q 155 257 174 201 q 194 144 227 108 q 260 73 302 53 q 343 34 389 34 q 477 34 531 107 q 586 179 586 310 q 586 462 525 538 q 464 614 355 614 z m 689 329 q 689 230 649 153 q 609 76 536 33 q 463 -10 369 -10 q 283 -10 211 29 q 139 67 95 141 q 52 214 52 310 q 52 407 93 487 q 135 566 207 612 q 280 658 368 658 q 458 658 531 618 q 604 577 646 502 q 689 426 689 329 z"},"(":{"x_min":0,"x_max":300,"ha":300,"o":"m 44 252 q 44 386 103 506 q 162 626 256 707 l 279 689 l 260 667 q 251 657 235 633 q 218 608 205 584 q 192 561 177 523 q 162 486 151 447 q 141 409 134 357 q 127 306 127 252 q 127 -13 279 -187 l 256 -204 q 213 -167 179 -124 q 145 -81 123 -43 q 101 -5 85 37 q 69 79 62 110 q 54 141 50 174 q 45 207 45 222 q 44 237 44 252 z"},"C":{"x_min":0,"x_max":677,"ha":677,"o":"m 380 658 q 414 658 449 654 q 484 649 510 642 q 535 636 556 629 q 577 622 587 617 l 598 613 l 600 610 l 594 585 l 589 563 q 587 558 585 546 q 583 535 582 525 q 581 514 580 499 l 570 498 q 514 611 366 611 q 340 611 313 602 q 285 593 257 572 q 228 550 206 520 q 183 489 169 440 q 155 392 155 334 q 155 290 164 248 q 172 206 191 168 q 210 130 237 102 q 264 74 302 57 q 340 41 385 41 q 454 41 500 63 q 545 85 598 144 l 622 125 q 519 -10 376 -10 q 313 -10 260 9 q 207 27 169 58 q 131 89 104 131 q 78 173 65 219 q 52 266 52 315 q 52 387 79 451 q 107 516 152 561 q 198 605 257 632 q 317 658 380 658 z"},"W":{"x_min":0,"x_max":951,"ha":951,"o":"m 644 132 l 671 195 l 702 266 l 730 333 l 761 405 l 787 470 q 803 512 812 538 l 832 594 q 842 625 848 648 q 860 645 898 645 q 921 645 933 648 l 638 -10 l 610 -10 l 479 352 l 318 -10 l 290 -10 l 194 225 l 84 492 q 38 603 16 648 q 33 645 76 645 q 109 645 126 648 q 135 615 151 565 q 167 516 215 389 q 263 263 323 123 l 325 123 l 452 422 q 379 617 366 648 q 383 645 426 645 q 464 645 481 648 q 509 524 642 132 z"},"A":{"x_min":0,"x_max":629,"ha":629,"o":"m 407 275 q 360 399 306 522 l 304 522 l 199 276 q 208 276 247 275 q 287 274 303 274 q 358 274 407 275 z m 179 229 q 119 80 96 -3 q 84 0 51 0 q 28 0 16 -3 l 311 658 l 339 658 l 436 422 l 544 154 q 591 42 613 -3 q 596 0 553 0 q 520 0 503 -3 q 481 79 425 229 q 369 230 308 230 q 236 230 179 229 z"},"f":{"x_min":0,"x_max":314,"ha":314,"o":"m 99 429 l 99 468 q 99 552 154 621 q 182 657 226 678 q 271 698 318 698 q 346 698 363 688 l 364 685 q 349 654 336 603 l 325 602 q 316 618 301 627 q 286 637 267 637 q 225 637 199 611 q 174 585 174 544 q 174 537 177 498 q 179 458 179 438 l 179 429 l 222 429 q 259 429 292 431 l 297 424 q 289 404 285 383 q 268 385 213 385 l 179 385 l 179 199 q 179 67 189 0 l 187 -3 q 169 0 139 0 q 109 0 91 -3 l 89 0 q 99 66 99 199 l 99 385 l 98 385 q 48 385 24 383 l 19 390 q 32 411 41 431 q 54 429 99 429 z"},"Q":{"x_min":0,"x_max":741,"ha":741,"o":"m 355 614 q 325 614 297 604 q 269 595 243 573 q 217 551 198 519 q 178 487 167 438 q 155 388 155 327 q 155 257 174 201 q 194 144 227 108 q 260 73 302 53 q 343 34 389 34 q 477 34 531 107 q 586 179 586 310 q 586 462 525 538 q 464 614 355 614 z m 561 49 l 619 15 q 672 -17 717 -39 q 761 -61 810 -77 l 810 -83 q 744 -118 716 -140 q 667 -112 610 -70 q 554 -28 484 9 q 431 -10 369 -10 q 283 -10 211 29 q 139 67 95 141 q 52 214 52 310 q 52 407 93 487 q 135 566 207 612 q 280 658 368 658 q 458 658 531 618 q 604 577 646 502 q 689 426 689 329 q 689 239 655 167 q 622 94 561 49 z"},"w":{"x_min":0,"x_max":717,"ha":717,"o":"m 200 -4 q 103 249 20 431 q 36 428 73 428 q 110 428 123 431 l 141 375 l 159 315 l 177 262 q 189 224 198 201 l 218 147 q 230 116 243 89 l 249 89 q 279 152 333 307 l 290 432 q 306 429 343 429 q 380 429 393 432 q 439 221 489 90 l 497 90 q 557 232 620 432 q 629 429 654 429 q 688 429 697 432 q 637 300 511 -3 q 502 0 474 0 q 458 0 448 -3 l 359 237 q 330 166 269 -4 q 260 -1 233 -1 q 210 -1 200 -4 z"},"-":{"x_min":0,"x_max":333,"ha":333,"o":"m 274 236 l 48 236 q 42 236 37 241 q 33 246 33 253 q 33 265 41 278 q 49 290 58 290 l 287 290 q 301 290 301 272 q 301 263 292 249 q 283 236 274 236 z"},"E":{"x_min":0,"x_max":538,"ha":538,"o":"m 190 200 q 190 85 198 56 q 258 56 328 59 q 398 62 439 65 l 480 68 l 482 64 q 480 48 480 31 q 480 28 482 0 l 480 -3 q 456 0 420 0 l 147 0 q 131 0 118 -1 q 105 -1 101 -2 l 95 -3 l 94 0 q 104 68 104 200 l 104 445 q 104 574 94 645 l 96 648 q 113 645 147 645 l 410 645 q 446 645 470 648 l 472 645 q 470 617 470 607 q 470 597 472 581 l 470 577 q 332 589 198 589 q 190 560 190 445 l 190 367 q 295 367 413 377 l 416 374 q 413 361 413 342 q 413 323 416 310 l 413 307 q 315 317 190 317 z"},"s":{"x_min":0,"x_max":396,"ha":396,"o":"m 50 101 l 65 102 q 87 70 118 50 q 149 30 183 30 q 224 30 250 52 q 275 74 275 113 q 275 146 250 163 q 227 179 174 194 q 148 201 129 209 q 111 217 92 231 q 74 245 64 267 q 54 288 54 317 q 54 356 77 385 q 100 414 133 426 q 167 439 205 439 q 241 439 279 430 q 317 421 340 409 l 342 406 l 322 332 l 308 331 q 280 364 263 377 q 233 399 201 399 q 167 399 146 382 q 125 366 125 336 q 125 281 218 258 q 247 251 269 241 q 292 232 312 217 q 332 202 343 179 q 354 156 354 127 q 354 109 350 92 q 346 74 334 55 q 322 36 304 22 q 286 8 255 -1 q 224 -10 184 -10 q 110 -10 33 17 z"},">":{"x_min":0,"x_max":487,"ha":487,"o":"m 366 236 l 49 352 l 49 402 l 439 260 l 439 212 l 49 71 l 49 121 z"},"l":{"x_min":0,"x_max":252,"ha":252,"o":"m 90 200 l 90 482 q 90 627 81 675 l 83 678 q 127 682 170 698 q 179 698 179 688 q 170 567 170 500 l 170 200 q 170 68 179 0 l 177 -3 q 158 0 130 0 q 102 0 83 -3 l 81 0 q 90 64 90 200 z"},"8":{"x_min":0,"x_max":465,"ha":465,"o":"m 235 577 q 191 577 167 552 q 142 528 142 491 q 142 462 156 436 q 169 410 212 382 l 243 364 q 273 385 299 418 q 324 450 324 486 q 324 525 302 551 q 280 577 235 577 z m 398 485 q 398 462 387 440 q 375 418 355 399 q 334 379 318 367 q 302 354 280 340 l 341 300 q 428 243 428 162 q 428 133 415 103 q 401 73 377 48 q 352 23 312 7 q 273 -9 226 -9 q 144 -9 91 31 q 39 72 39 146 q 39 175 57 207 q 74 239 105 266 q 137 294 175 323 l 155 334 q 112 359 90 395 q 67 431 67 473 q 67 532 116 571 q 166 610 241 610 q 314 610 356 575 q 398 540 398 485 z m 228 24 q 243 24 258 27 q 272 29 289 37 q 305 45 317 58 q 330 70 337 92 q 345 113 345 141 q 345 215 257 271 l 211 300 q 117 237 117 146 q 117 114 128 89 q 139 64 156 51 q 173 38 191 31 q 209 24 228 24 z"},"\\":{"x_min":0,"x_max":292,"ha":292,"o":"m 60 698 l 290 -48 l 241 -48 l 11 698 z"},"e":{"x_min":0,"x_max":453,"ha":453,"o":"m 125 273 l 309 273 q 323 273 323 287 q 323 339 296 369 q 270 399 239 399 q 230 399 220 396 q 209 393 194 384 q 179 375 166 362 q 153 349 141 326 q 130 302 125 273 z m 392 104 l 412 79 q 383 39 336 15 q 290 -10 238 -10 q 188 -10 146 8 q 105 25 79 56 q 34 110 34 209 q 34 262 53 306 q 71 351 101 379 q 130 408 167 423 q 203 439 239 439 q 277 439 307 427 q 338 416 357 397 q 376 378 389 353 q 402 328 407 302 q 412 277 412 250 q 412 233 394 233 l 122 233 q 122 145 146 106 q 165 76 194 62 q 225 49 255 49 q 341 49 392 104 z"},"b":{"x_min":0,"x_max":504,"ha":504,"o":"m 162 81 q 178 61 203 45 q 228 30 250 30 q 319 30 351 79 q 382 128 382 224 q 382 312 349 355 q 317 399 267 399 q 238 399 216 386 q 194 373 162 340 z m 162 500 l 162 389 q 208 439 287 439 q 362 439 417 380 q 471 321 471 232 q 471 171 452 123 q 433 75 402 47 q 370 19 333 5 q 295 -10 256 -10 q 226 -10 194 4 q 162 19 138 39 q 122 8 105 -10 q 85 -10 77 -2 q 82 22 82 73 l 82 482 q 82 608 70 675 l 72 678 q 116 682 159 698 q 168 698 168 688 q 162 614 162 500 z"},"%":{"x_min":0,"x_max":680,"ha":680,"o":"m 462 89 q 462 51 477 34 q 491 18 510 18 q 538 18 561 45 q 584 72 595 108 q 607 143 607 175 q 607 194 602 208 q 597 223 588 229 q 580 235 573 238 q 566 240 559 240 q 535 240 511 215 q 488 190 475 155 q 462 120 462 89 z m 406 105 q 406 145 424 184 q 442 222 476 248 q 509 273 547 273 q 564 273 580 269 q 595 264 609 254 q 623 244 631 224 q 639 204 639 176 q 639 148 630 116 q 621 84 605 55 q 588 25 562 6 q 535 -13 503 -13 q 457 -13 431 22 q 406 58 406 105 z m 389 557 q 433 557 480 570 q 526 583 549 614 l 583 597 l 145 -13 l 109 3 l 492 537 q 441 517 378 517 q 359 517 333 524 q 308 530 293 539 q 296 529 296 513 q 296 486 287 455 q 278 423 261 394 q 245 364 218 344 q 191 324 159 324 q 113 324 88 359 q 63 395 63 440 q 63 503 105 557 q 147 610 203 610 q 225 610 245 602 q 266 593 275 583 q 331 557 389 557 z m 118 425 q 118 387 133 371 q 147 355 166 355 q 194 355 217 382 q 240 409 252 444 q 263 480 263 512 q 263 548 248 562 q 233 577 215 577 q 190 577 167 552 q 145 527 131 491 q 118 456 118 425 z"},"m":{"x_min":0,"x_max":807,"ha":807,"o":"m 162 352 l 165 349 q 250 439 333 439 q 375 439 404 417 q 432 396 439 360 q 514 439 608 439 q 639 439 662 431 q 685 422 698 409 q 711 396 719 374 q 727 353 729 331 q 732 309 732 280 l 732 180 q 732 68 741 0 l 739 -3 q 721 0 692 0 q 663 0 645 -3 l 643 0 q 652 61 652 180 l 652 290 q 652 339 633 359 q 614 379 572 379 q 537 379 507 367 q 478 355 445 319 q 446 307 446 281 l 446 180 q 446 68 455 0 l 453 -3 q 435 0 406 0 q 377 0 359 -3 l 357 0 q 366 64 366 180 l 366 290 q 366 379 300 379 q 273 379 235 357 q 197 336 162 301 l 162 180 q 162 64 171 0 l 169 -3 q 150 0 122 0 q 94 0 75 -3 l 73 0 q 82 61 82 180 l 82 235 q 82 374 73 429 l 75 432 q 117 428 156 435 q 162 435 162 425 z"},"#":{"x_min":0,"x_max":470,"ha":470,"o":"m 285 247 l 303 364 l 186 364 l 167 247 z m 339 364 l 319 247 l 416 247 l 408 195 l 313 195 l 283 14 l 248 14 l 276 195 l 159 195 l 129 14 l 94 14 l 123 195 l 27 195 l 34 247 l 131 247 l 150 364 l 53 364 l 62 417 l 158 417 l 187 598 l 223 598 l 193 417 l 312 417 l 340 598 l 375 598 l 346 417 l 443 417 l 435 364 z"},",":{"x_min":0,"x_max":220,"ha":220,"o":"m 48 44 l 48 48 q 55 68 67 81 q 80 93 102 102 l 106 102 q 136 91 153 67 q 170 42 170 -3 q 170 -20 167 -35 q 163 -50 159 -61 q 155 -72 146 -83 q 136 -95 130 -101 q 124 -107 110 -117 q 96 -126 89 -130 q 83 -134 66 -144 q 53 -133 53 -123 q 93 -96 112 -74 q 131 -52 131 -29 q 131 -20 128 -14 q 126 -9 121 -7 q 116 -4 112 -4 q 108 -3 102 -3 q 77 2 65 11 q 54 20 48 44 z"},"n":{"x_min":0,"x_max":539,"ha":539,"o":"m 460 180 q 460 68 469 0 l 467 -3 q 448 0 420 0 q 392 0 373 -3 l 371 0 q 380 64 380 180 l 380 278 q 380 337 364 358 q 348 379 308 379 q 277 379 238 359 q 198 338 163 297 l 163 180 q 163 64 172 0 l 170 -3 q 151 0 123 0 q 95 0 76 -3 l 74 0 q 83 61 83 180 l 83 235 q 83 374 74 429 l 76 432 q 119 428 157 435 q 163 435 163 425 l 163 352 l 165 349 q 188 376 213 395 q 238 414 262 423 q 285 432 303 435 q 321 439 338 439 q 404 439 433 400 q 462 361 462 281 q 462 265 461 230 q 460 196 460 180 z"},"h":{"x_min":0,"x_max":549,"ha":549,"o":"m 170 352 l 172 349 q 194 376 220 395 q 246 414 269 423 q 292 432 310 435 q 329 439 345 439 q 411 439 440 400 q 469 361 469 281 q 469 265 468 230 q 467 196 467 180 q 467 68 476 0 l 474 -3 q 456 0 427 0 q 398 0 380 -3 l 378 0 q 387 64 387 180 l 387 278 q 387 337 371 358 q 354 379 315 379 q 284 379 245 359 q 205 338 170 297 l 170 180 q 170 72 179 0 l 177 -3 q 158 0 130 0 q 102 0 83 -3 l 81 0 q 90 63 90 180 l 90 481 q 90 627 81 675 l 83 678 q 127 682 170 698 q 179 698 179 688 q 170 571 170 501 z"},"z":{"x_min":0,"x_max":416,"ha":416,"o":"m 136 50 q 190 50 252 53 q 315 56 351 59 l 386 61 l 388 58 q 386 42 386 27 q 386 26 388 0 l 386 -3 q 363 0 330 0 l 104 0 l 23 -3 l 20 1 q 21 3 42 32 l 277 379 q 226 378 169 376 q 112 373 80 371 l 49 368 l 47 371 q 49 387 49 402 q 49 403 47 429 l 49 432 q 71 429 105 429 l 309 429 q 322 429 341 431 q 360 432 374 434 q 388 435 390 435 q 395 435 395 429 q 390 423 365 387 z"},"B":{"x_min":0,"x_max":616,"ha":616,"o":"m 190 559 l 190 371 l 268 371 q 335 371 372 396 q 408 421 408 481 q 408 517 396 543 q 385 569 365 582 q 345 594 325 600 q 304 605 281 605 q 241 605 221 600 q 201 595 196 586 q 190 577 190 559 z m 190 328 l 190 88 q 190 63 213 52 q 235 40 287 40 q 329 40 360 47 q 391 53 409 64 q 427 75 438 91 q 448 108 452 125 q 455 142 455 165 q 455 236 411 282 q 367 328 283 328 z m 147 645 q 174 645 216 646 q 258 648 274 648 q 328 648 368 638 q 409 628 432 613 q 456 598 471 576 q 485 555 490 535 q 495 516 495 493 q 495 453 468 416 q 441 379 402 360 q 472 340 513 296 q 554 252 554 184 q 554 156 548 131 q 542 106 524 81 q 507 56 480 38 q 453 20 408 9 q 364 -3 306 -3 q 258 -3 217 -1 q 175 0 147 0 q 131 0 118 -1 q 105 -1 101 -2 l 95 -3 l 94 0 q 104 68 104 200 l 104 445 q 104 574 94 645 l 96 648 q 113 645 147 645 z"},"K":{"x_min":0,"x_max":629,"ha":629,"o":"m 104 445 q 104 574 94 645 l 96 648 q 114 645 147 645 q 180 645 198 648 l 200 645 q 190 575 190 445 l 190 344 q 203 346 212 353 q 332 458 497 648 q 510 645 546 645 q 581 645 597 648 l 429 494 q 339 408 293 354 l 293 352 l 607 -3 q 588 0 545 0 q 500 0 483 -3 q 266 265 209 322 q 202 328 190 329 l 190 200 q 190 75 200 0 l 198 -3 q 180 0 147 0 q 114 0 96 -3 l 94 0 q 104 68 104 200 z"},"R":{"x_min":0,"x_max":600,"ha":600,"o":"m 190 286 l 190 200 q 190 75 200 0 l 198 -3 q 180 0 147 0 q 114 0 96 -3 l 94 0 q 104 68 104 200 l 104 445 q 104 574 94 645 l 96 648 q 114 645 147 645 q 163 645 217 648 q 271 652 282 652 q 322 652 350 650 q 377 647 412 636 q 447 625 469 604 q 522 554 522 479 q 522 421 494 381 q 466 340 422 318 q 400 307 361 299 q 385 268 466 150 q 547 32 575 0 l 573 -3 q 553 0 513 0 q 472 0 453 -3 q 445 21 416 75 q 387 128 358 176 l 340 205 l 321 236 q 314 247 303 262 q 292 277 283 289 q 242 286 190 286 z m 283 609 q 248 609 230 608 q 213 607 203 601 q 193 596 191 589 q 190 582 190 565 l 190 326 l 248 326 q 279 326 304 330 q 329 334 352 344 q 375 355 391 372 q 407 389 417 416 q 426 442 426 478 q 426 509 417 533 q 408 557 394 571 q 379 585 360 594 q 340 603 322 606 q 303 609 283 609 z"},"T":{"x_min":0,"x_max":540,"ha":540,"o":"m 227 445 q 227 562 219 589 q 160 589 109 585 q 60 582 38 579 l 17 575 l 15 579 q 18 603 15 645 l 17 648 q 41 645 77 645 l 463 645 q 499 645 523 648 l 525 645 q 522 603 525 579 l 523 575 q 454 589 321 589 q 313 562 313 445 l 313 200 q 313 75 323 0 l 321 -3 q 303 0 270 0 q 237 0 219 -3 l 217 0 q 227 71 227 200 z"},"P":{"x_min":0,"x_max":559,"ha":559,"o":"m 190 565 l 190 329 q 210 319 269 319 q 346 319 384 354 q 422 388 422 471 q 422 506 413 531 q 405 557 392 571 q 379 586 359 595 q 340 604 321 606 q 303 609 280 609 q 229 609 209 598 q 190 588 190 565 z m 104 445 q 104 574 94 645 l 96 648 q 114 645 147 645 q 162 645 218 648 q 274 652 287 652 q 340 652 382 641 q 424 629 449 612 q 474 594 490 570 q 507 546 513 523 q 519 500 519 476 q 519 449 511 423 q 503 396 485 369 q 466 342 439 322 q 412 301 369 289 q 326 276 274 276 q 223 276 190 286 l 190 200 q 190 75 200 0 l 198 -3 q 180 0 147 0 q 114 0 96 -3 l 94 0 q 104 68 104 200 z"},"|":{"x_min":0,"x_max":210,"ha":210,"o":"m 130 -232 l 81 -232 l 81 698 l 130 698 z"},"t":{"x_min":0,"x_max":340,"ha":340,"o":"m 95 429 q 95 461 97 500 q 99 540 99 557 l 101 560 q 116 562 127 566 q 138 569 151 576 q 164 582 171 585 q 180 585 180 575 q 175 504 175 429 l 222 429 q 232 429 245 429 q 258 430 272 430 q 286 431 292 431 l 297 424 q 289 404 285 383 q 268 385 213 385 l 175 385 l 175 259 q 175 225 173 181 q 172 137 172 126 q 172 85 179 66 q 187 47 205 44 q 244 38 284 52 l 296 27 q 265 7 238 -1 q 212 -10 180 -10 q 143 -10 117 15 q 92 40 92 86 q 92 97 94 156 q 95 214 95 248 l 95 385 q 47 385 24 383 l 19 390 q 32 411 41 431 q 57 429 95 429 z"},"M":{"x_min":0,"x_max":886,"ha":886,"o":"m 193 662 l 220 662 q 251 599 326 425 q 400 250 453 154 l 711 662 l 733 662 q 776 284 817 -3 q 802 0 764 0 q 730 0 715 -3 q 689 310 669 473 l 666 473 q 536 234 434 0 l 415 0 q 386 62 318 225 q 250 388 205 476 l 201 476 q 188 396 161 221 q 135 45 127 -3 q 116 0 97 0 q 75 0 64 -3 q 143 376 193 662 z"},"g":{"x_min":0,"x_max":499,"ha":499,"o":"m 101 -104 q 101 -128 116 -147 q 132 -166 154 -175 q 176 -185 197 -190 q 217 -195 232 -195 q 301 -195 350 -170 q 400 -145 400 -101 q 400 -52 361 -29 q 342 -18 320 -15 q 297 -12 255 -12 q 250 -12 216 -14 q 183 -15 166 -15 q 139 -30 120 -55 q 101 -80 101 -104 z m 390 289 q 390 223 347 179 q 304 136 224 136 q 176 136 150 150 q 120 124 120 94 q 120 65 136 56 q 152 47 178 47 q 179 47 207 49 q 249 54 290 54 q 393 54 431 21 q 473 -15 473 -78 q 473 -117 449 -148 q 426 -180 387 -199 q 348 -218 301 -228 q 254 -238 204 -238 q 174 -238 146 -232 q 118 -226 91 -214 q 64 -201 48 -178 q 32 -155 32 -124 q 32 -110 39 -92 q 45 -73 55 -58 q 67 -49 82 -40 q 97 -31 116 -21 q 135 -10 140 -7 q 102 0 83 23 q 64 46 64 79 q 64 119 126 162 q 55 203 55 287 q 55 323 71 352 q 86 382 111 400 q 135 419 165 429 q 195 439 225 439 q 256 439 286 430 q 329 433 378 440 q 427 448 444 449 l 447 446 q 444 433 444 420 q 444 407 447 394 l 444 391 q 374 398 340 401 q 390 368 390 289 z m 312 284 q 312 401 221 401 q 178 401 156 372 q 133 342 133 292 q 133 234 155 205 q 177 176 229 176 q 274 176 293 204 q 312 232 312 284 z"},"y":{"x_min":0,"x_max":506,"ha":506,"o":"m 28 432 q 42 429 80 429 q 116 429 129 432 l 141 397 l 152 364 l 165 329 l 178 296 l 192 261 l 205 228 q 208 220 220 192 l 233 159 l 248 122 l 263 87 l 265 87 q 330 226 396 432 q 406 429 435 429 q 468 429 478 432 q 437 349 325 96 q 213 -156 188 -237 q 172 -232 139 -232 q 120 -232 104 -237 q 175 -120 222 -10 q 210 23 181 90 l 128 210 l 68 342 q 32 422 28 432 z"},"@":{"x_min":0,"x_max":895,"ha":895,"o":"m 569 316 q 569 344 550 361 q 532 379 504 379 q 487 379 460 369 q 434 359 414 339 q 346 271 346 162 q 346 70 424 70 q 450 70 483 107 q 515 145 539 200 q 569 270 569 316 z m 594 62 q 634 62 663 72 q 692 82 715 106 q 737 130 749 172 q 760 214 760 275 q 760 334 740 386 q 721 437 690 472 q 659 507 619 532 q 579 558 538 569 q 498 581 459 581 q 412 581 367 569 q 322 557 281 530 q 239 502 208 463 q 177 424 158 367 q 139 310 139 241 q 139 208 144 174 q 149 140 160 103 q 172 66 189 34 q 207 1 234 -28 q 261 -58 294 -79 q 328 -100 374 -113 q 419 -125 473 -125 q 591 -125 674 -59 l 687 -77 q 634 -118 583 -138 q 532 -158 454 -158 q 366 -158 292 -128 q 217 -99 167 -47 q 116 4 88 74 q 59 144 59 223 q 59 302 92 374 q 125 446 179 498 q 234 550 310 580 q 386 611 469 611 q 548 611 617 586 q 687 561 735 517 q 783 473 811 412 q 839 352 839 282 q 839 246 830 212 q 821 177 800 143 q 778 109 746 84 q 714 59 664 43 q 614 27 551 27 q 531 27 523 40 q 515 52 515 68 q 515 84 530 131 l 528 132 q 497 80 461 54 q 425 29 395 29 q 360 29 334 42 q 309 56 296 76 q 284 97 278 116 q 273 135 273 153 q 273 205 294 253 q 316 302 350 335 q 383 369 425 390 q 466 410 506 410 q 531 410 553 398 q 576 386 583 367 l 588 391 l 641 404 l 656 399 l 596 141 q 583 81 583 74 q 583 68 587 65 q 591 62 594 62 z"},".":{"x_min":0,"x_max":220,"ha":220,"o":"m 54 44 l 54 48 q 62 68 73 81 q 85 93 108 102 l 112 102 q 134 94 146 81 q 159 69 166 48 l 166 44 q 158 20 146 8 q 133 -4 112 -10 l 108 -10 q 84 -4 73 7 q 61 19 54 44 z"},"p":{"x_min":0,"x_max":523,"ha":523,"o":"m 162 294 l 162 75 q 201 30 255 30 q 286 30 309 42 q 333 54 347 72 q 361 91 370 116 q 378 142 382 167 q 385 191 385 218 q 385 303 359 348 q 333 393 282 393 q 252 393 215 363 q 178 333 162 294 z m 162 352 l 164 349 q 223 439 299 439 q 353 439 393 409 q 434 378 453 332 q 473 285 473 231 q 473 124 416 57 q 359 -10 261 -10 q 202 -10 162 12 l 162 -32 q 162 -164 171 -232 l 169 -235 q 150 -232 122 -232 q 94 -232 75 -235 l 73 -232 q 82 -167 82 -32 l 82 235 q 82 374 73 429 l 75 432 q 117 428 156 435 q 162 435 162 425 z"},"X":{"x_min":0,"x_max":581,"ha":581,"o":"m 564 -3 q 546 0 506 0 q 466 0 448 -3 q 430 33 406 73 l 368 134 l 319 208 l 274 275 q 175 124 107 -3 q 96 0 65 0 q 34 0 23 -3 l 244 321 l 28 648 q 45 645 84 645 q 123 645 141 648 q 149 631 162 609 q 174 588 192 560 l 225 509 l 264 449 l 302 391 q 369 488 397 532 q 425 577 464 648 q 475 645 506 645 q 537 645 548 648 l 466 535 l 332 345 l 372 283 l 414 219 l 449 166 l 488 106 l 523 55 z"},"*":{"x_min":0,"x_max":433,"ha":433,"o":"m 198 567 q 181 571 156 571 q 116 571 95 579 q 75 587 75 608 q 75 620 83 629 q 91 638 108 638 q 123 638 137 630 q 151 621 169 608 q 187 594 204 587 q 202 607 192 637 q 181 667 181 679 q 181 695 189 707 q 198 718 211 718 q 226 718 235 709 q 244 700 244 683 q 244 669 235 635 q 226 600 225 586 q 243 594 261 608 q 279 622 292 630 q 306 638 320 638 q 337 638 346 628 q 354 618 354 608 q 354 571 285 571 q 254 571 230 567 q 242 553 265 538 q 288 523 301 510 q 313 498 313 480 q 313 467 304 459 q 295 451 284 451 q 267 451 255 467 q 244 483 232 513 q 221 542 213 555 q 206 542 194 511 q 182 480 171 466 q 160 451 143 451 q 130 451 122 459 q 114 467 114 479 q 114 498 127 511 q 140 524 163 539 q 186 553 198 567 z"},"Y":{"x_min":0,"x_max":582,"ha":582,"o":"m 333 285 q 335 53 340 -3 q 321 0 290 0 q 259 0 240 -3 q 247 74 247 275 l 130 466 l 16 648 q 42 645 73 645 q 104 645 130 648 l 181 555 l 249 437 l 305 340 q 416 513 480 648 q 498 645 522 645 q 544 645 564 648 l 485 528 l 416 424 l 372 353 q 348 313 333 285 z"},"c":{"x_min":0,"x_max":429,"ha":429,"o":"m 250 399 q 198 399 162 351 q 126 303 126 223 q 126 138 163 89 q 199 40 256 40 q 286 40 311 49 q 336 58 363 82 l 367 82 l 386 61 q 331 -10 239 -10 q 147 -10 93 52 q 38 114 38 218 q 38 267 57 310 q 75 352 105 380 q 136 408 174 423 q 212 439 251 439 q 288 439 324 431 q 360 423 384 411 l 386 408 l 363 326 l 350 325 q 307 399 250 399 z"},"!":{"x_min":0,"x_max":228,"ha":228,"o":"m 113 658 q 135 658 152 639 q 169 620 169 585 q 169 548 158 484 q 146 421 143 392 q 138 345 134 302 q 130 260 129 237 q 127 214 127 210 q 125 190 113 190 q 105 190 103 193 q 100 197 99 203 q 99 209 96 241 q 94 273 91 315 q 87 355 84 392 q 81 428 70 487 q 59 546 59 585 q 59 622 76 640 q 93 658 113 658 z m 57 44 l 57 48 q 64 68 76 81 q 88 93 111 102 l 115 102 q 137 94 150 81 q 162 69 169 48 l 169 44 q 161 20 149 8 q 137 -4 115 -10 l 111 -10 q 87 -4 75 7 q 63 19 57 44 z"},"/":{"x_min":0,"x_max":323,"ha":323,"o":"m 293 646 l 56 -59 l 15 -59 l 252 646 z"},"[":{"x_min":0,"x_max":361,"ha":361,"o":"m 110 -192 l 110 703 l 325 703 l 325 673 q 289 670 266 667 q 244 665 226 658 q 208 652 200 646 q 191 640 186 626 q 181 613 179 599 q 178 585 178 561 l 178 -50 q 178 -74 179 -88 q 181 -102 186 -115 q 191 -128 200 -135 q 208 -142 226 -148 q 244 -154 266 -157 q 289 -160 325 -163 l 325 -192 z"},"6":{"x_min":0,"x_max":465,"ha":465,"o":"m 127 277 q 126 267 126 240 q 126 189 135 150 q 143 111 156 88 q 169 65 187 51 q 205 37 221 32 q 237 27 255 27 q 294 27 319 61 q 344 96 344 173 q 344 190 342 207 q 340 224 332 245 q 325 266 313 281 q 301 296 279 307 q 257 318 228 318 q 167 318 127 277 z m 400 583 q 345 578 303 561 q 260 544 224 509 q 146 432 129 306 q 146 328 182 343 q 218 358 249 358 q 293 358 328 344 q 362 330 381 309 q 400 289 412 263 q 424 237 428 217 q 432 197 432 180 q 432 157 427 133 q 421 109 408 83 q 394 57 374 37 q 353 17 320 4 q 286 -9 244 -9 q 218 -9 194 -3 q 169 3 141 20 q 114 37 93 63 q 73 90 59 137 q 46 183 46 243 q 46 318 73 386 q 100 454 153 508 q 203 559 261 583 q 318 606 397 611 z"},"r":{"x_min":0,"x_max":355,"ha":355,"o":"m 167 334 l 170 332 q 205 392 231 416 q 258 439 297 439 q 304 439 308 438 q 313 438 315 438 q 317 437 323 435 q 329 433 333 432 l 337 428 l 317 354 l 309 352 q 294 366 257 366 q 242 366 227 357 q 212 348 201 331 q 183 303 175 282 q 167 261 167 232 l 167 180 q 167 68 176 0 l 174 -3 q 155 0 127 0 q 99 0 80 -3 l 78 0 q 87 61 87 180 l 87 235 q 87 374 78 429 l 80 432 q 123 428 161 435 q 167 435 167 425 z"},"2":{"x_min":0,"x_max":444,"ha":444,"o":"m 202 553 q 154 553 125 530 q 116 522 108 513 q 102 504 99 499 q 97 494 90 479 q 83 463 81 459 l 68 460 l 46 529 q 60 547 80 563 q 101 580 138 595 q 176 610 218 610 q 301 610 347 566 q 394 521 394 449 q 394 375 321 278 q 290 236 259 200 q 228 164 210 146 l 159 97 q 142 80 142 70 q 142 67 143 65 q 170 67 225 67 q 312 67 408 75 q 403 56 403 28 q 403 16 406 -5 q 287 0 232 0 q 199 0 170 -1 q 141 -1 104 -3 q 68 -4 42 -5 q 33 11 33 34 q 33 41 34 47 q 36 48 69 79 l 120 127 l 168 177 q 199 208 224 240 q 249 271 270 301 q 288 329 298 365 q 308 402 308 435 q 308 486 275 520 q 243 553 202 553 z"},"{":{"x_min":0,"x_max":277,"ha":277,"o":"m 178 552 l 186 386 q 189 324 163 294 q 137 265 81 249 l 81 245 q 136 222 163 188 q 189 154 186 95 l 178 -54 q 175 -114 199 -151 q 223 -188 258 -188 q 262 -192 262 -200 q 262 -208 258 -212 q 218 -212 190 -205 q 163 -197 143 -179 q 122 -161 113 -129 q 104 -97 106 -49 l 112 121 q 115 223 14 235 q 2 247 14 259 q 65 264 89 295 q 112 327 112 370 l 106 554 q 104 596 115 625 q 126 656 147 673 q 168 690 195 699 q 223 707 258 707 q 262 703 262 695 q 262 688 258 683 q 243 679 234 675 q 225 671 212 662 q 200 652 193 639 q 186 626 182 604 q 177 582 178 552 z"},"9":{"x_min":0,"x_max":465,"ha":465,"o":"m 333 323 q 334 333 334 360 q 334 411 325 450 q 317 489 304 512 q 291 535 273 549 q 255 563 239 568 q 223 573 205 573 q 166 573 141 539 q 116 504 116 427 q 116 415 117 403 q 118 392 121 377 q 125 362 130 349 q 135 336 144 324 q 153 311 165 302 q 176 293 194 288 q 211 282 232 282 q 293 282 333 323 z m 60 17 q 115 22 157 39 q 200 56 236 91 q 272 127 298 179 q 323 231 331 294 q 313 272 278 257 q 242 242 211 242 q 167 242 132 256 q 98 271 79 291 q 60 311 48 337 q 36 363 32 383 q 28 403 28 420 q 28 443 33 467 q 39 491 52 517 q 66 543 86 563 q 107 583 140 596 q 174 609 216 609 q 242 609 266 603 q 291 597 319 580 q 346 563 367 537 q 387 510 401 463 q 414 417 414 357 q 414 282 387 214 q 360 146 307 92 q 257 41 199 17 q 142 -7 63 -11 z"}," ":{"x_min":0,"x_max":250,"ha":250,"o":""},"I":{"x_min":0,"x_max":294,"ha":294,"o":"m 104 445 q 104 574 94 645 l 96 648 q 114 645 147 645 q 180 645 198 648 l 200 645 q 190 575 190 445 l 190 200 q 190 75 200 0 l 198 -3 q 180 0 147 0 q 114 0 96 -3 l 94 0 q 104 68 104 200 z"},"H":{"x_min":0,"x_max":726,"ha":726,"o":"m 536 445 q 536 570 526 645 l 528 648 q 546 645 579 645 q 612 645 631 648 l 632 645 q 622 579 622 445 l 622 200 q 622 71 632 0 l 630 -3 q 611 0 579 0 q 545 0 527 -3 l 526 0 q 536 71 536 200 l 536 321 l 190 321 l 190 200 q 190 75 200 0 l 198 -3 q 180 0 147 0 q 113 0 95 -3 l 94 0 q 104 68 104 200 l 104 445 q 104 574 94 645 l 96 648 q 114 645 147 645 q 181 645 199 648 l 200 645 q 190 575 190 445 l 190 365 l 536 365 z"},"4":{"x_min":0,"x_max":465,"ha":465,"o":"m 286 148 l 80 148 q 21 148 21 168 q 21 183 34 207 q 73 273 159 405 q 245 537 291 600 l 295 604 q 313 600 329 600 q 337 600 351 602 q 365 604 368 604 q 370 604 370 600 q 364 541 364 452 l 364 198 l 428 198 q 443 198 443 182 q 443 173 433 160 q 424 148 414 148 l 364 148 q 364 94 370 0 q 370 -3 368 -3 q 365 -3 350 -1 q 335 0 326 0 l 279 -3 l 278 0 q 286 72 286 148 z m 286 512 l 83 198 l 286 198 z"},"~":{"x_min":0,"x_max":449,"ha":449,"o":"m 26 209 q 36 260 73 298 q 109 337 154 337 q 177 337 228 305 l 254 289 q 263 284 277 278 q 291 272 301 272 q 316 272 334 278 q 352 284 371 300 q 390 315 400 339 l 417 333 q 406 295 389 270 q 372 244 354 232 q 335 221 322 217 q 309 213 297 213 q 269 213 222 246 q 176 278 148 278 q 120 278 88 258 q 56 238 39 206 z"},"D":{"x_min":0,"x_max":710,"ha":710,"o":"m 190 82 q 190 64 197 57 q 204 49 226 46 q 249 42 299 42 q 331 42 358 45 q 384 47 411 55 q 438 62 459 74 q 480 85 499 104 q 517 123 529 148 q 542 173 548 207 q 555 242 555 284 q 555 333 547 377 q 539 421 518 463 q 498 505 466 536 q 435 566 386 585 q 336 604 274 604 q 253 604 240 603 q 226 601 214 597 q 202 593 196 585 q 190 577 190 564 z m 147 645 q 179 645 229 646 q 280 648 312 648 q 383 648 447 621 q 511 594 557 548 q 604 502 631 439 q 658 376 658 308 q 658 257 647 214 q 636 170 618 139 q 600 107 573 83 q 547 58 519 42 q 490 27 457 17 q 424 6 393 2 q 362 -2 330 -2 q 274 -2 226 -1 q 178 0 147 0 q 131 0 118 -1 q 105 -1 101 -2 l 95 -3 l 94 0 q 104 68 104 200 l 104 445 q 104 574 94 645 l 96 648 q 113 645 147 645 z"},"^":{"x_min":0,"x_max":518,"ha":518,"o":"m 259 593 l 157 346 l 112 346 l 239 650 l 281 650 l 407 346 l 362 346 z"},"0":{"x_min":0,"x_max":465,"ha":465,"o":"m 233 571 q 125 571 125 287 q 125 266 126 245 q 126 225 129 198 q 132 171 137 149 q 141 126 149 103 q 157 81 168 65 q 178 49 194 39 q 210 29 229 29 q 236 29 243 31 q 250 32 261 38 q 272 44 282 53 q 292 63 302 81 q 312 99 318 122 q 328 159 331 202 q 335 246 335 317 q 335 412 318 473 q 302 534 277 555 q 259 571 233 571 z m 228 -10 q 168 -10 125 31 q 81 73 60 139 q 39 206 39 289 q 39 361 55 422 q 71 483 98 524 q 125 564 160 587 q 195 610 233 610 q 290 610 328 575 q 344 560 358 541 q 373 521 388 489 q 403 458 412 411 q 421 364 421 309 q 421 242 408 186 q 396 131 375 95 q 355 60 329 35 q 303 11 278 0 q 252 -10 228 -10 z"},"F":{"x_min":0,"x_max":504,"ha":504,"o":"m 407 645 q 446 645 470 648 l 472 645 q 470 617 470 611 q 470 597 472 581 l 470 577 q 332 589 198 589 q 190 560 190 445 l 190 367 q 295 367 413 377 l 416 374 q 413 361 413 342 q 413 323 416 310 l 413 307 q 315 317 190 317 l 190 200 q 190 75 200 0 l 198 -3 q 181 0 147 0 q 131 0 118 -1 q 105 -1 101 -2 l 95 -3 l 94 0 q 104 68 104 200 l 104 445 q 104 574 94 645 l 96 648 q 113 645 147 645 z"},"`":{"x_min":0,"x_max":392,"ha":392,"o":"m 178 699 l 248 573 q 254 562 254 549 q 254 545 249 542 q 245 538 239 538 q 231 538 210 558 l 96 667 l 98 678 q 129 701 163 701 q 170 701 178 699 z"},"k":{"x_min":0,"x_max":503,"ha":503,"o":"m 90 200 l 90 482 q 90 627 81 675 l 83 678 q 127 682 170 698 q 179 698 179 688 q 170 567 170 500 l 170 240 q 197 242 214 255 q 245 278 293 331 q 341 384 372 429 q 454 429 473 432 l 475 429 q 431 392 369 333 q 308 274 273 238 q 315 187 353 147 l 431 66 l 496 0 l 494 -3 q 481 0 434 0 q 391 0 368 -3 l 310 81 q 293 104 268 135 q 243 166 211 199 q 205 205 192 207 q 179 210 170 210 l 170 200 q 170 68 179 0 l 177 -3 q 158 0 130 0 q 102 0 83 -3 l 81 0 q 90 64 90 200 z"},"u":{"x_min":0,"x_max":537,"ha":537,"o":"m 365 92 q 337 49 297 20 q 257 -10 214 -10 q 178 -10 152 2 q 125 14 111 34 q 97 54 90 78 q 83 102 83 129 l 83 249 q 83 365 74 429 l 76 432 q 95 429 123 429 q 151 429 170 432 l 172 429 q 163 369 163 249 l 163 150 q 163 117 168 95 q 174 73 184 63 q 194 53 205 49 q 215 46 230 46 q 265 46 304 78 q 343 109 367 151 l 367 249 q 367 361 358 429 l 360 432 q 378 429 407 429 q 436 429 454 432 l 456 429 q 447 366 447 249 l 447 192 q 447 94 464 0 l 462 -3 q 442 0 417 0 q 409 0 383 -3 q 374 -3 374 0 l 369 89 z"},"]":{"x_min":0,"x_max":361,"ha":361,"o":"m 251 703 l 251 -192 l 36 -192 l 36 -162 q 72 -160 95 -157 q 118 -154 135 -148 q 152 -142 161 -135 q 170 -128 175 -115 q 181 -102 182 -88 q 183 -74 183 -50 l 183 561 q 183 585 182 599 q 181 613 175 626 q 170 640 162 646 q 153 652 135 659 q 118 665 95 668 q 73 671 36 674 l 36 703 z"},"U":{"x_min":0,"x_max":692,"ha":692,"o":"m 544 445 q 544 574 534 645 l 536 648 q 555 645 571 645 q 588 645 606 648 l 608 645 q 598 579 598 445 l 598 295 q 598 239 591 194 q 583 150 565 111 q 547 72 518 46 q 488 20 443 5 q 397 -10 337 -10 q 307 -10 278 -4 q 249 1 217 18 q 184 35 160 61 q 136 87 120 132 q 104 177 104 236 l 104 445 q 104 574 94 645 l 96 648 q 114 645 147 645 q 180 645 198 648 l 200 645 q 190 575 190 445 l 190 269 q 190 255 190 247 q 190 238 192 219 q 193 201 196 187 q 199 173 205 154 q 210 135 219 121 q 227 107 240 92 q 253 77 269 68 q 285 58 308 52 q 331 46 358 46 q 393 46 421 53 q 450 60 469 72 q 488 83 502 102 q 516 120 524 139 q 532 157 536 182 q 541 208 542 229 q 544 250 544 277 z"},"o":{"x_min":0,"x_max":500,"ha":500,"o":"m 38 205 q 38 312 97 375 q 156 439 254 439 q 354 439 408 378 q 462 318 462 214 q 462 114 405 52 q 348 -10 250 -10 q 153 -10 95 51 q 38 112 38 205 z m 247 399 q 220 399 198 389 q 177 378 164 362 q 150 345 142 322 q 133 298 129 274 q 126 250 126 222 q 126 197 129 172 q 133 148 142 121 q 152 95 166 75 q 181 55 205 42 q 229 30 259 30 q 309 30 341 77 q 374 124 374 196 q 374 245 369 279 q 364 313 350 342 q 337 371 311 385 q 286 399 247 399 z"},"N":{"x_min":0,"x_max":718,"ha":718,"o":"m 108 645 l 110 648 q 118 645 152 645 l 166 647 l 509 203 q 544 158 551 152 q 563 141 566 159 q 567 166 568 178 l 568 445 q 568 574 558 645 l 560 648 q 578 645 595 645 q 611 645 630 648 l 632 645 q 626 567 623 481 q 619 396 618 340 q 616 284 615 179 q 613 74 612 21 q 610 -10 593 -10 q 567 -10 550 14 l 201 455 l 186 475 q 180 482 175 485 q 170 489 168 488 q 166 487 164 480 q 163 474 162 465 q 162 456 162 439 l 162 200 q 162 71 172 0 l 170 -3 q 151 0 135 0 q 118 0 100 -3 l 98 0 q 110 115 112 311 q 115 506 108 645 z"},"+":{"x_min":0,"x_max":527,"ha":527,"o":"m 289 257 l 461 257 l 461 208 l 289 208 l 289 34 l 238 34 l 238 208 l 66 208 l 66 257 l 238 257 l 238 431 l 289 431 z"},"G":{"x_min":0,"x_max":717,"ha":717,"o":"m 546 117 q 543 255 536 307 l 538 310 q 555 307 589 307 q 604 307 617 308 q 630 309 636 310 l 641 310 l 642 307 q 632 237 632 137 l 632 131 q 632 96 642 83 l 642 80 q 535 -10 376 -10 q 303 -10 241 17 q 179 43 138 89 q 97 134 74 193 q 52 252 52 317 q 52 381 72 437 q 91 492 125 532 q 159 572 204 601 q 249 630 299 644 q 349 658 401 658 q 435 658 471 654 q 507 649 534 642 q 562 636 583 629 q 605 622 617 617 l 629 613 l 631 610 q 614 540 611 489 l 601 488 q 567 545 511 578 q 454 611 387 611 q 285 611 220 534 q 155 457 155 327 q 155 286 163 246 q 171 207 190 168 q 208 129 236 101 q 263 72 305 54 q 348 36 399 36 q 505 36 546 74 z"},"q":{"x_min":0,"x_max":522,"ha":522,"o":"m 357 376 q 330 399 263 399 q 207 399 172 352 q 137 305 137 227 q 137 173 149 134 q 161 94 180 73 q 200 53 221 43 q 243 34 266 34 q 283 34 313 43 q 342 52 360 66 l 360 234 q 360 278 359 314 q 358 350 357 363 z m 366 432 q 399 427 447 432 l 449 429 q 440 370 440 235 l 440 -32 q 440 -168 449 -232 l 447 -235 q 434 -232 400 -232 q 384 -232 373 -233 q 361 -233 357 -234 l 353 -235 l 351 -232 q 360 -175 360 -32 l 360 23 q 346 11 314 1 q 281 -10 242 -10 q 192 -10 154 10 q 116 31 94 64 q 71 98 60 136 q 49 175 49 216 q 49 313 109 376 q 168 439 257 439 q 324 439 366 432 z"},"d":{"x_min":0,"x_max":530,"ha":530,"o":"m 361 113 l 361 341 q 342 371 321 385 q 300 399 266 399 q 250 399 234 395 q 218 391 200 379 q 182 368 169 349 q 156 330 147 297 q 138 264 138 221 q 138 132 166 87 q 194 42 238 42 q 269 42 302 60 q 334 79 361 113 z m 361 58 q 308 -10 232 -10 q 152 -10 102 55 q 51 119 51 213 q 51 314 115 376 q 178 439 277 439 q 293 439 319 433 q 345 426 361 417 l 361 482 q 361 627 352 675 l 354 678 q 398 682 441 698 q 450 698 450 688 q 441 571 441 500 l 441 192 q 441 94 458 0 l 456 -3 q 437 0 412 0 q 403 0 377 -3 q 368 -3 368 0 l 363 58 z"},"1":{"x_min":0,"x_max":465,"ha":465,"o":"m 326 189 q 326 77 335 0 l 333 -3 q 305 0 285 0 l 239 -3 l 238 0 q 246 69 246 189 l 246 437 q 246 455 246 465 q 246 475 244 488 q 242 501 238 507 q 234 513 228 513 q 217 513 176 506 q 135 500 114 497 l 108 526 q 150 539 224 570 q 298 601 327 610 q 334 610 334 605 q 326 548 326 443 z"},"5":{"x_min":0,"x_max":465,"ha":465,"o":"m 202 -10 q 114 -10 51 46 l 47 49 l 69 129 l 83 130 l 93 111 l 103 93 q 106 87 112 77 q 119 67 123 63 l 133 52 q 140 45 147 42 q 153 39 162 36 q 171 32 181 31 q 192 30 204 30 q 255 30 287 70 q 318 111 318 179 q 318 258 286 299 q 254 340 203 340 q 181 340 158 335 q 135 330 120 325 q 104 319 79 309 l 72 312 l 104 606 q 172 600 218 600 q 300 600 382 610 l 389 607 l 373 539 q 324 533 268 533 q 208 533 141 542 l 120 365 q 161 380 229 380 q 310 380 358 326 q 406 272 406 196 q 406 107 348 49 q 291 -10 202 -10 z"}}}
